<svg xmlns="http://www.w3.org/2000/svg" width="120.004" height="119.932" viewBox="0 0 120.004 119.932"><defs><style>.a,.b,.c,.d,.e,.f{fill:none;stroke:#030707;}.a,.b,.c,.d{stroke-miterlimit:10;}.a{stroke-width:2.006px;}.b{stroke-width:2.006px;}.c{stroke-width:2px;}.d{stroke-linecap:square;stroke-width:2.003px;}.e,.f{stroke-linecap:round;stroke-linejoin:round;stroke-miterlimit:1.5;}.e{stroke-width:1.997px;}.f{stroke-width:2.007px;}</style></defs><g transform="translate(0 -0.037)"><path class="a" d="M100.809,60.583A50.09,50.09,0,1,1,73.116,32.89" transform="translate(-3.176 -10.557)"/><path class="b" d="M67.206-40.389a33.329,33.329,0,0,0,2.43-12.535A33.425,33.425,0,0,0,36.211-86.349,33.425,33.425,0,0,0,2.785-52.924,33.425,33.425,0,0,0,36.211-19.5a33.327,33.327,0,0,0,12.533-2.429" transform="translate(87.351 15.905) rotate(180)"/><path class="c" d="M25.133-15.1a12.464,12.464,0,0,0,.909-4.688,12.5,12.5,0,0,0-12.5-12.5,12.5,12.5,0,0,0-12.5,12.5,12.5,12.5,0,0,0,12.5,12.5A12.463,12.463,0,0,0,18.229-8.2" transform="translate(43.183 91.45) rotate(-15.001)"/><path class="d" d="M32.143,46.978,71.7,7.418" transform="translate(18.998 21.85)"/><circle class="e" cx="7.288" cy="7.288" r="7.288" transform="translate(88.793 16.577)"/><circle class="f" cx="13.551" cy="13.551" r="13.551" transform="translate(91.898 1.04)"/></g></svg>