<svg xmlns="http://www.w3.org/2000/svg" xmlns:xlink="http://www.w3.org/1999/xlink" width="472.151" height="285.644" viewBox="0 0 472.151 285.644"><defs><style>.a{fill:#eeff8e;}.b{fill:#ffedc1;}.c{fill:#9a8181;stroke:#707070;}.d{fill:#fff;}.e{fill:#ffecc1;}.f,.p{fill:#896a00;}.f,.j{font-size:14px;}.f,.j,.o,.p,.q,.r{font-family:Gilroy-Semibold, Gilroy;font-weight:600;}.g,.o,.p,.q,.r{font-size:13px;}.g,.h{font-family:Gilroy-Medium, Gilroy;font-weight:500;}.h{fill:#d1d1d1;font-size:12px;}.i{fill:#d6e1ff;}.j,.o{fill:#002089;}.k{clip-path:url(#i);}.l{fill:#e5ceff;}.m{clip-path:url(#j);}.n{clip-path:url(#k);}.q{fill:#39214b;}.s{filter:url(#l);}.t{filter:url(#g);}.u{filter:url(#e);}.v{filter:url(#c);}.w{filter:url(#a);}</style><filter id="a" x="89.436" y="8.604" width="395.378" height="243.04" filterUnits="userSpaceOnUse"><feOffset dx="-30" dy="30" input="SourceAlpha"/><feGaussianBlur stdDeviation="25" result="b"/><feFlood flood-opacity="0.133"/><feComposite operator="in" in2="b"/><feComposite in="SourceGraphic"/></filter><filter id="c" x="0" y="162.883" width="394.642" height="242.761" filterUnits="userSpaceOnUse"><feOffset dx="-30" dy="30" input="SourceAlpha"/><feGaussianBlur stdDeviation="25" result="d"/><feFlood flood-opacity="0.133"/><feComposite operator="in" in2="d"/><feComposite in="SourceGraphic"/></filter><filter id="e" x="539.151" y="31" width="433" height="244" filterUnits="userSpaceOnUse"><feOffset dx="-30" dy="30" input="SourceAlpha"/><feGaussianBlur stdDeviation="25" result="f"/><feFlood flood-opacity="0.039"/><feComposite operator="in" in2="f"/><feComposite in="SourceGraphic"/></filter><filter id="g" x="446.151" y="13" width="346" height="346" filterUnits="userSpaceOnUse"><feOffset dx="-30" dy="30" input="SourceAlpha"/><feGaussianBlur stdDeviation="25" result="h"/><feFlood flood-opacity="0.133"/><feComposite operator="in" in2="h"/><feComposite in="SourceGraphic"/></filter><clipPath id="i"><path class="a" d="M84.489,0l44.482,116.433,7.942,124.047L0,146.447Z" transform="translate(-1.063 -10.73)"/></clipPath><clipPath id="j"><path class="b" d="M80,0l80,137H0Z" transform="translate(154.688 129.762) rotate(180)"/></clipPath><clipPath id="k"><path class="c" d="M89.5,0,179,156H0Z" transform="translate(-6.903 -7.368)"/></clipPath><filter id="l" x="529.151" y="76" width="201" height="200" filterUnits="userSpaceOnUse"><feOffset dx="-20" dy="20" input="SourceAlpha"/><feGaussianBlur stdDeviation="15" result="m"/><feFlood flood-opacity="0.078"/><feComposite operator="in" in2="m"/><feComposite in="SourceGraphic"/></filter></defs><g transform="translate(-1120.849 -5862)"><g class="u" transform="matrix(1, 0, 0, 1, 636.85, 5830)"><rect class="d" width="283" height="94" transform="translate(644.15 76)"/></g><text class="g" transform="translate(1468 5945)"><tspan x="-45.318" y="0">DISPENSES PER</tspan><tspan x="-12.018" y="24">DAY</tspan></text><g transform="translate(-5 38)"><g transform="translate(1120.388 5798.939)"><g class="t" transform="matrix(1, 0, 0, 1, -478.54, -6.94)"><circle class="d" cx="98" cy="98" r="98" transform="translate(551.15 58)"/></g><g class="k" transform="translate(171.043 27.061)"><path class="l" d="M112.487,0c62.125,0,112.487,50.631,112.487,113.087S174.612,226.174,112.487,226.174,0,175.543,0,113.087,50.362,0,112.487,0Z" transform="translate(-113.55 9.744)"/></g><g class="m" transform="translate(95.924 32.299)"><path class="b" d="M123.8,0A123.8,123.8,0,1,1,0,123.8,123.8,123.8,0,0,1,123.8,0Z" transform="translate(-48.609 -6.504)"/></g><g class="n" transform="translate(-0.485 0.429)"><path class="i" d="M142.1,0A142.1,142.1,0,1,1,0,142.1,142.1,142.1,0,0,1,142.1,0Z" transform="translate(30.244 6.53)"/></g><g class="s" transform="matrix(1, 0, 0, 1, -478.54, -6.94)"><ellipse class="d" cx="55.5" cy="55" rx="55.5" ry="55" transform="translate(594.15 101)"/></g></g><text class="o" transform="translate(1208 5906)"><tspan x="-10.686" y="0">15%</tspan></text><text class="p" transform="translate(1291 5874)"><tspan x="-11.238" y="0">10%</tspan></text><text class="q" transform="translate(1369 5939)"><tspan x="-11.713" y="0">35%</tspan></text><text class="r" transform="translate(1268 6020)"><tspan x="-12.59" y="0">40%</tspan></text></g></g></svg>