<svg xmlns="http://www.w3.org/2000/svg" width="54" height="105" viewBox="0 0 54 105"><defs><style>.a{fill:#3bae4b;}</style></defs><g transform="translate(-1141 378) rotate(-90)"><circle class="a" cx="1.5" cy="1.5" r="1.5" transform="translate(273 1141)"/><circle class="a" cx="1.5" cy="1.5" r="1.5" transform="translate(273 1158)"/><circle class="a" cx="1.5" cy="1.5" r="1.5" transform="translate(290 1141)"/><circle class="a" cx="1.5" cy="1.5" r="1.5" transform="translate(290 1158)"/><circle class="a" cx="1.5" cy="1.5" r="1.5" transform="translate(307 1141)"/><circle class="a" cx="1.5" cy="1.5" r="1.5" transform="translate(307 1158)"/><circle class="a" cx="1.5" cy="1.5" r="1.5" transform="translate(324 1141)"/><circle class="a" cx="1.5" cy="1.5" r="1.5" transform="translate(324 1158)"/><circle class="a" cx="1.5" cy="1.5" r="1.5" transform="translate(341 1141)"/><circle class="a" cx="1.5" cy="1.5" r="1.5" transform="translate(341 1158)"/><circle class="a" cx="1.5" cy="1.5" r="1.5" transform="translate(324 1175)"/><circle class="a" cx="1.5" cy="1.5" r="1.5" transform="translate(324 1192)"/><circle class="a" cx="1.5" cy="1.5" r="1.5" transform="translate(341 1175)"/><circle class="a" cx="1.5" cy="1.5" r="1.5" transform="translate(341 1192)"/><circle class="a" cx="1.5" cy="1.5" r="1.5" transform="translate(358 1175)"/><circle class="a" cx="1.5" cy="1.5" r="1.5" transform="translate(358 1192)"/><circle class="a" cx="1.5" cy="1.5" r="1.5" transform="translate(375 1175)"/><circle class="a" cx="1.5" cy="1.5" r="1.5" transform="translate(375 1192)"/></g></svg>