<svg xmlns="http://www.w3.org/2000/svg" width="54" height="139" viewBox="0 0 54 139"><defs><style>.a{fill:#ab8144;}</style></defs><g transform="translate(-31 138)"><g transform="translate(31 1) rotate(-90)"><circle class="a" cx="1.5" cy="1.5" r="1.5" transform="translate(68 51)"/><circle class="a" cx="1.5" cy="1.5" r="1.5" transform="translate(68 34)"/><circle class="a" cx="1.5" cy="1.5" r="1.5" transform="translate(85 51)"/><circle class="a" cx="1.5" cy="1.5" r="1.5" transform="translate(85 34)"/><circle class="a" cx="1.5" cy="1.5" r="1.5" transform="translate(102 51)"/><circle class="a" cx="1.5" cy="1.5" r="1.5" transform="translate(102 34)"/><circle class="a" cx="1.5" cy="1.5" r="1.5" transform="translate(119 51)"/><circle class="a" cx="1.5" cy="1.5" r="1.5" transform="translate(119 34)"/><circle class="a" cx="1.5" cy="1.5" r="1.5" transform="translate(68 17)"/><circle class="a" cx="1.5" cy="1.5" r="1.5" transform="translate(68)"/><circle class="a" cx="1.5" cy="1.5" r="1.5" transform="translate(85 17)"/><circle class="a" cx="1.5" cy="1.5" r="1.5" transform="translate(85)"/><circle class="a" cx="1.5" cy="1.5" r="1.5" transform="translate(102 17)"/><circle class="a" cx="1.5" cy="1.5" r="1.5" transform="translate(102)"/><circle class="a" cx="1.5" cy="1.5" r="1.5" transform="translate(119 17)"/><circle class="a" cx="1.5" cy="1.5" r="1.5" transform="translate(119)"/><circle class="a" cx="1.5" cy="1.5" r="1.5" transform="translate(136 17)"/><circle class="a" cx="1.5" cy="1.5" r="1.5" transform="translate(136)"/></g><g transform="translate(31 69) rotate(-90)"><circle class="a" cx="1.5" cy="1.5" r="1.5" transform="translate(68 51)"/><circle class="a" cx="1.5" cy="1.5" r="1.5" transform="translate(68 34)"/><circle class="a" cx="1.5" cy="1.5" r="1.5" transform="translate(85 51)"/><circle class="a" cx="1.5" cy="1.5" r="1.5" transform="translate(85 34)"/><circle class="a" cx="1.5" cy="1.5" r="1.5" transform="translate(102 51)"/><circle class="a" cx="1.5" cy="1.5" r="1.5" transform="translate(102 34)"/><circle class="a" cx="1.5" cy="1.5" r="1.5" transform="translate(119 51)"/><circle class="a" cx="1.5" cy="1.5" r="1.5" transform="translate(119 34)"/><circle class="a" cx="1.5" cy="1.5" r="1.5" transform="translate(68 17)"/><circle class="a" cx="1.5" cy="1.5" r="1.5" transform="translate(68)"/><circle class="a" cx="1.5" cy="1.5" r="1.5" transform="translate(85 17)"/><circle class="a" cx="1.5" cy="1.5" r="1.5" transform="translate(85)"/><circle class="a" cx="1.5" cy="1.5" r="1.5" transform="translate(102 17)"/><circle class="a" cx="1.5" cy="1.5" r="1.5" transform="translate(102)"/><circle class="a" cx="1.5" cy="1.5" r="1.5" transform="translate(119 17)"/><circle class="a" cx="1.5" cy="1.5" r="1.5" transform="translate(119)"/></g></g></svg>