<svg width="232" height="72" viewBox="0 0 232 72" fill="none" xmlns="http://www.w3.org/2000/svg">
<g opacity="0.25">
<path d="M0 4C0 1.79086 1.79086 0 4 0C6.20914 0 8 1.79086 8 4C8 6.20914 6.20914 8 4 8C1.79086 8 0 6.20914 0 4Z" fill="#000000"/>
<path d="M40 4C40 1.79086 38.2091 0 36 0C33.7909 0 32 1.79086 32 4C32 6.20914 33.7909 8 36 8C38.2091 8 40 6.20914 40 4Z" fill="#000000"/>
<path d="M64 4C64 1.79086 65.7909 0 68 0C70.2091 0 72 1.79086 72 4C72 6.20914 70.2091 8 68 8C65.7909 8 64 6.20914 64 4Z" fill="#000000"/>
<path d="M104 4C104 1.79086 102.209 0 100 0C97.7909 0 96 1.79086 96 4C96 6.20914 97.7909 8 100 8C102.209 8 104 6.20914 104 4Z" fill="#000000"/>
<path d="M128 4C128 1.79086 129.791 0 132 0C134.209 0 136 1.79086 136 4C136 6.20914 134.209 8 132 8C129.791 8 128 6.20914 128 4Z" fill="#000000"/>
<path d="M168 4C168 1.79086 166.209 0 164 0C161.791 0 160 1.79086 160 4C160 6.20914 161.791 8 164 8C166.209 8 168 6.20914 168 4Z" fill="#000000"/>
<path d="M192 4C192 1.79086 193.791 0 196 0C198.209 0 200 1.79086 200 4C200 6.20914 198.209 8 196 8C193.791 8 192 6.20914 192 4Z" fill="#000000"/>
<path d="M232 4C232 1.79086 230.209 0 228 0C225.791 0 224 1.79086 224 4C224 6.20914 225.791 8 228 8C230.209 8 232 6.20914 232 4Z" fill="#000000"/>
<path d="M0 36C0 33.7909 1.79086 32 4 32C6.20914 32 8 33.7909 8 36C8 38.2091 6.20914 40 4 40C1.79086 40 0 38.2091 0 36Z" fill="#000000"/>
<path d="M40 36C40 33.7909 38.2091 32 36 32C33.7909 32 32 33.7909 32 36C32 38.2091 33.7909 40 36 40C38.2091 40 40 38.2091 40 36Z" fill="#000000"/>
<path d="M64 36C64 33.7909 65.7909 32 68 32C70.2091 32 72 33.7909 72 36C72 38.2091 70.2091 40 68 40C65.7909 40 64 38.2091 64 36Z" fill="#000000"/>
<path d="M104 36C104 33.7909 102.209 32 100 32C97.7909 32 96 33.7909 96 36C96 38.2091 97.7909 40 100 40C102.209 40 104 38.2091 104 36Z" fill="#000000"/>
<path d="M128 36C128 33.7909 129.791 32 132 32C134.209 32 136 33.7909 136 36C136 38.2091 134.209 40 132 40C129.791 40 128 38.2091 128 36Z" fill="#000000"/>
<path d="M168 36C168 33.7909 166.209 32 164 32C161.791 32 160 33.7909 160 36C160 38.2091 161.791 40 164 40C166.209 40 168 38.2091 168 36Z" fill="#000000"/>
<path d="M192 36C192 33.7909 193.791 32 196 32C198.209 32 200 33.7909 200 36C200 38.2091 198.209 40 196 40C193.791 40 192 38.2091 192 36Z" fill="#000000"/>
<path d="M232 36C232 33.7909 230.209 32 228 32C225.791 32 224 33.7909 224 36C224 38.2091 225.791 40 228 40C230.209 40 232 38.2091 232 36Z" fill="#000000"/>
<path d="M0 68C0 65.7909 1.79086 64 4 64C6.20914 64 8 65.7909 8 68C8 70.2091 6.20914 72 4 72C1.79086 72 0 70.2091 0 68Z" fill="#000000"/>
<path d="M40 68C40 65.7909 38.2091 64 36 64C33.7909 64 32 65.7909 32 68C32 70.2091 33.7909 72 36 72C38.2091 72 40 70.2091 40 68Z" fill="#000000"/>
<path d="M64 68C64 65.7909 65.7909 64 68 64C70.2091 64 72 65.7909 72 68C72 70.2091 70.2091 72 68 72C65.7909 72 64 70.2091 64 68Z" fill="#000000"/>
<path d="M104 68C104 65.7909 102.209 64 100 64C97.7909 64 96 65.7909 96 68C96 70.2091 97.7909 72 100 72C102.209 72 104 70.2091 104 68Z" fill="#000000"/>
<path d="M128 68C128 65.7909 129.791 64 132 64C134.209 64 136 65.7909 136 68C136 70.2091 134.209 72 132 72C129.791 72 128 70.2091 128 68Z" fill="#000000"/>
<path d="M168 68C168 65.7909 166.209 64 164 64C161.791 64 160 65.7909 160 68C160 70.2091 161.791 72 164 72C166.209 72 168 70.2091 168 68Z" fill="#000000"/>
<path d="M192 68C192 65.7909 193.791 64 196 64C198.209 64 200 65.7909 200 68C200 70.2091 198.209 72 196 72C193.791 72 192 70.2091 192 68Z" fill="#000000"/>
</g>
</svg>
