<svg xmlns="http://www.w3.org/2000/svg" width="105" height="105" viewBox="0 0 105 105"><defs><style>.a{fill:#ab8144;}</style></defs><circle class="a" cx="1.5" cy="1.5" r="1.5" transform="translate(3 102) rotate(90)"/><circle class="a" cx="1.5" cy="1.5" r="1.5" transform="translate(3 85) rotate(90)"/><circle class="a" cx="1.5" cy="1.5" r="1.5" transform="translate(20 85) rotate(90)"/><circle class="a" cx="1.5" cy="1.5" r="1.5" transform="translate(20 68) rotate(90)"/><circle class="a" cx="1.5" cy="1.5" r="1.5" transform="translate(37 68) rotate(90)"/><circle class="a" cx="1.5" cy="1.5" r="1.5" transform="translate(3 68) rotate(90)"/><circle class="a" cx="1.5" cy="1.5" r="1.5" transform="translate(37 51) rotate(90)"/><circle class="a" cx="1.5" cy="1.5" r="1.5" transform="translate(54 51) rotate(90)"/><circle class="a" cx="1.5" cy="1.5" r="1.5" transform="translate(20 51) rotate(90)"/><circle class="a" cx="1.5" cy="1.5" r="1.5" transform="translate(3 51) rotate(90)"/><circle class="a" cx="1.5" cy="1.5" r="1.5" transform="translate(54 34) rotate(90)"/><circle class="a" cx="1.5" cy="1.5" r="1.5" transform="translate(71 34) rotate(90)"/><circle class="a" cx="1.5" cy="1.5" r="1.5" transform="translate(37 34) rotate(90)"/><circle class="a" cx="1.5" cy="1.5" r="1.5" transform="translate(20 34) rotate(90)"/><circle class="a" cx="1.5" cy="1.5" r="1.5" transform="translate(3 34) rotate(90)"/><circle class="a" cx="1.5" cy="1.5" r="1.5" transform="translate(54 34) rotate(90)"/><circle class="a" cx="1.5" cy="1.5" r="1.5" transform="translate(71 34) rotate(90)"/><circle class="a" cx="1.5" cy="1.5" r="1.5" transform="translate(37 34) rotate(90)"/><circle class="a" cx="1.5" cy="1.5" r="1.5" transform="translate(20 34) rotate(90)"/><circle class="a" cx="1.5" cy="1.5" r="1.5" transform="translate(3 34) rotate(90)"/><circle class="a" cx="1.5" cy="1.5" r="1.5" transform="translate(3 17) rotate(90)"/><circle class="a" cx="1.5" cy="1.5" r="1.5" transform="translate(71 17) rotate(90)"/><circle class="a" cx="1.5" cy="1.5" r="1.5" transform="translate(88 17) rotate(90)"/><circle class="a" cx="1.5" cy="1.5" r="1.5" transform="translate(54 17) rotate(90)"/><circle class="a" cx="1.5" cy="1.5" r="1.5" transform="translate(37 17) rotate(90)"/><circle class="a" cx="1.5" cy="1.5" r="1.5" transform="translate(20 17) rotate(90)"/><circle class="a" cx="1.5" cy="1.5" r="1.5" transform="translate(20) rotate(90)"/><circle class="a" cx="1.5" cy="1.5" r="1.5" transform="translate(88) rotate(90)"/><circle class="a" cx="1.5" cy="1.5" r="1.5" transform="translate(105) rotate(90)"/><circle class="a" cx="1.5" cy="1.5" r="1.5" transform="translate(71) rotate(90)"/><circle class="a" cx="1.5" cy="1.5" r="1.5" transform="translate(54) rotate(90)"/><circle class="a" cx="1.5" cy="1.5" r="1.5" transform="translate(37) rotate(90)"/><circle class="a" cx="1.5" cy="1.5" r="1.5" transform="translate(3) rotate(90)"/></svg>