<svg xmlns="http://www.w3.org/2000/svg" width="160.319" height="84.312" viewBox="0 0 160.319 84.312"><defs><style>.a{fill:#8984df;}</style></defs><g transform="translate(42.361 -28.871) rotate(30)"><circle class="a" cx="1.5" cy="1.5" r="1.5" transform="translate(0 33.338)"/><circle class="a" cx="1.5" cy="1.5" r="1.5" transform="translate(0 49.054)"/><circle class="a" cx="1.5" cy="1.5" r="1.5" transform="translate(0 65.723)"/><circle class="a" cx="1.5" cy="1.5" r="1.5" transform="translate(16.193 33.338)"/><circle class="a" cx="1.5" cy="1.5" r="1.5" transform="translate(16.193 49.054)"/><circle class="a" cx="1.5" cy="1.5" r="1.5" transform="translate(16.193 65.723)"/><circle class="a" cx="1.5" cy="1.5" r="1.5" transform="translate(32.861 33.338)"/><circle class="a" cx="1.5" cy="1.5" r="1.5" transform="translate(32.861 49.054)"/><circle class="a" cx="1.5" cy="1.5" r="1.5" transform="translate(32.861 65.723)"/><circle class="a" cx="1.5" cy="1.5" r="1.5" transform="translate(49.53 33.338)"/><circle class="a" cx="1.5" cy="1.5" r="1.5" transform="translate(49.53 49.054)"/><circle class="a" cx="1.5" cy="1.5" r="1.5" transform="translate(66.199 33.338)"/><circle class="a" cx="1.5" cy="1.5" r="1.5" transform="translate(66.199 49.054)"/><circle class="a" cx="1.5" cy="1.5" r="1.5" transform="translate(82.868 33.338)"/><circle class="a" cx="1.5" cy="1.5" r="1.5" transform="translate(82.868 49.054)"/><circle class="a" cx="1.5" cy="1.5" r="1.5" transform="translate(99.537 0)"/><circle class="a" cx="1.5" cy="1.5" r="1.5" transform="translate(99.537 16.669)"/><circle class="a" cx="1.5" cy="1.5" r="1.5" transform="translate(99.537 33.338)"/><circle class="a" cx="1.5" cy="1.5" r="1.5" transform="translate(99.537 49.054)"/><circle class="a" cx="1.5" cy="1.5" r="1.5" transform="translate(116.206 0)"/><circle class="a" cx="1.5" cy="1.5" r="1.5" transform="translate(116.206 16.669)"/><circle class="a" cx="1.5" cy="1.5" r="1.5" transform="translate(116.206 33.338)"/><circle class="a" cx="1.5" cy="1.5" r="1.5" transform="translate(116.206 49.054)"/><circle class="a" cx="1.5" cy="1.5" r="1.5" transform="translate(133.206)"/><circle class="a" cx="1.5" cy="1.5" r="1.5" transform="translate(133.206 16.669)"/><circle class="a" cx="1.5" cy="1.5" r="1.5" transform="translate(133.206 33.338)"/><circle class="a" cx="1.5" cy="1.5" r="1.5" transform="translate(133.206 49.054)"/><circle class="a" cx="1.5" cy="1.5" r="1.5" transform="translate(0 81.723)"/><circle class="a" cx="1.5" cy="1.5" r="1.5" transform="translate(16.193 81.723)"/><circle class="a" cx="1.5" cy="1.5" r="1.5" transform="translate(32.861 81.723)"/></g></svg>