<svg xmlns="http://www.w3.org/2000/svg" width="90.732" height="117.457" viewBox="0 0 90.732 117.457"><defs><style>.a,.b,.c,.d,.e,.f{fill:none;stroke:#030707;}.a,.b,.c,.d{stroke-miterlimit:10;}.a,.c{stroke-width:1.995px;}.b,.c,.d{stroke-linecap:square;}.b{stroke-width:1.996px;}.d{stroke-width:1.996px;}.e{stroke-linecap:round;stroke-width:1.999px;}.e,.f{stroke-linejoin:round;stroke-miterlimit:1.5;}.f{stroke-width:1.995px;fill-rule:evenodd;}</style></defs><g transform="translate(-478.096 -2.403)"><g transform="translate(476.076 12.493)"><g transform="translate(-3.223 -15.035)"><g transform="translate(15.137)"><path class="a" d="M11.084,57.268H55.2"/><g transform="translate(-2.314 0.733)"><g transform="translate(26.763 2.758)"><path class="b" d="M45.842,16.236h28.83" transform="translate(-19.28)"/></g><g transform="translate(26.763 2.758)"><path class="b" d="M42.977,23.876l5.73,5.73"/></g><g transform="translate(26.763 2.758)"><path class="b" d="M42.977,8.6l5.73-5.73"/></g></g><path class="c" d="M11.084,90.237V57.268A22.169,22.169,0,0,1,33.252,35.1H48.031A22.169,22.169,0,0,1,70.2,57.268v57.268H56.069"/><g transform="translate(-1.62 -2.761)"><rect class="d" width="19.21" height="18" transform="translate(32.656 13.5)"/></g><g transform="translate(8.915 4.885)"><circle class="e" cx="5" cy="5" r="5" transform="translate(36.348 9.855)"/></g></g><g transform="translate(-520.244 12.954)"><path class="f" d="M558.163,48.2l7.927,22.4,23.75.619-18.85,14.46,6.751,22.778L558.163,94.991,538.585,108.45l6.751-22.778-18.85-14.46,23.75-.619Z"/></g></g></g></g></svg>