<svg xmlns="http://www.w3.org/2000/svg" width="105.92" height="103.422" viewBox="0 0 105.92 103.422"><defs><style>.a,.b{fill:none;stroke:#030707;stroke-miterlimit:10;stroke-width:2px;}.a{stroke-linecap:square;}</style></defs><g transform="translate(-16.524 135.46)"><g transform="translate(177.524 -120.581)"><path class="a" d="M3,25V66.122a8.915,8.915,0,0,0,8.959,8.87h86a8.915,8.915,0,0,0,8.959-8.87V25" transform="translate(-163 12.551)"/><path class="a" d="M106.92,25.739V16.87A8.915,8.915,0,0,0,97.962,8h-86A8.915,8.915,0,0,0,3,16.87v8.87L54.96,59.122Z" transform="translate(-163)"/></g><g transform="translate(26.639 -6.361)"><path class="b" d="M62.116-107.39a23.224,23.224,0,0,1,1.693,8.734,23.29,23.29,0,0,1-23.29,23.29,23.29,23.29,0,0,1-23.29-23.29,23.29,23.29,0,0,1,23.29-23.291,23.222,23.222,0,0,1,8.733,1.692" transform="translate(2.434 2.015)"/><path class="a" d="M69.218-130.069v20.113" transform="translate(-26.265 1.971)"/><path class="a" d="M69.218-130.069v26" transform="translate(-49.56 -165.76) rotate(90)"/><path class="a" d="M69.218-130.069v20.113" transform="translate(-26.265 44.971)"/><path class="a" d="M69.218-130.069v26" transform="translate(-98.56 -165.76) rotate(90)"/></g></g></svg>