<svg xmlns="http://www.w3.org/2000/svg" width="111.081" height="103.416" viewBox="0 0 111.081 103.416"><defs><style>.a,.b{fill:none;stroke:#030707;stroke-miterlimit:10;stroke-width:2px;}.a{stroke-linecap:square;}</style></defs><g transform="translate(-9.05 112.466)"><path class="a" d="M10.05-10.05V-32.258a18.283,18.283,0,0,1,13.1-17.549A99.806,99.806,0,0,1,51.2-54.012a100.166,100.166,0,0,1,28,4.261,18.3,18.3,0,0,1,13.144,17.56v21.611h-40.4"/><path class="a" d="M28.337-88.607A22.859,22.859,0,0,1,51.2-111.466,22.858,22.858,0,0,1,74.054-88.607c0,12.625-10.234,27.43-22.859,27.43S28.337-75.982,28.337-88.607Z"/><path class="b" d="M97.35-39.465l23.411,23.187" transform="translate(-1.334 -8.216)"/><path class="a" d="M91.565-84.648a29.972,29.972,0,0,1,2.2,11.295A30.5,30.5,0,0,1,63.135-43.02,30.5,30.5,0,0,1,32.507-73.354a30.5,30.5,0,0,1,30.627-30.334,30.816,30.816,0,0,1,10.1,1.69" transform="translate(15.114 8.075)"/><path class="a" d="M29.61,17.26a19.752,19.752,0,0,1-9.677,2.482A19.847,19.847,0,0,1,0,0" transform="matrix(-0.966, 0.259, -0.259, -0.966, 97.503, -70.438)"/></g></svg>