<svg xmlns="http://www.w3.org/2000/svg" xmlns:xlink="http://www.w3.org/1999/xlink" width="630" height="419" viewBox="0 0 630 419"><defs><style>.a{fill:#eeff8e;}.b{fill:#ffedc1;}.c{fill:#9a8181;stroke:#707070;}.d{fill:#fff;}.e,.l{font-size:15px;}.e{font-family:Gilroy-Medium, Gilroy;font-weight:500;}.f{clip-path:url(#e);}.g{fill:#e5ceff;}.h{clip-path:url(#f);}.i{clip-path:url(#g);}.j{fill:#d6e1ff;}.k{fill:#002089;}.k,.m,.n{font-size:16px;}.k,.l,.m,.n{font-family:Gilroy-Semibold, Gilroy;font-weight:600;}.l{fill:#896a00;}.m{fill:#39214b;}.o{filter:url(#h);}.p{filter:url(#c);}.q{filter:url(#a);}</style><filter id="a" x="131" y="146" width="499" height="266" filterUnits="userSpaceOnUse"><feOffset dx="-30" dy="30" input="SourceAlpha"/><feGaussianBlur stdDeviation="25" result="b"/><feFlood flood-opacity="0.039"/><feComposite operator="in" in2="b"/><feComposite in="SourceGraphic"/></filter><filter id="c" x="0" y="27" width="392" height="392" filterUnits="userSpaceOnUse"><feOffset dx="-30" dy="30" input="SourceAlpha"/><feGaussianBlur stdDeviation="25" result="d"/><feFlood flood-opacity="0.133"/><feComposite operator="in" in2="d"/><feComposite in="SourceGraphic"/></filter><clipPath id="e"><path class="a" d="M104.3,0l54.915,143.74,9.8,153.14L0,180.793Z" transform="translate(0 0)"/></clipPath><clipPath id="f"><path class="b" d="M99,0l99,169H0Z" transform="translate(197.961 169.495) rotate(180)"/></clipPath><clipPath id="g"><path class="c" d="M110.5,0,221,193H0Z" transform="translate(-0.055 0)"/></clipPath><filter id="h" x="102" y="109" width="209" height="207" filterUnits="userSpaceOnUse"><feOffset dx="-20" dy="20" input="SourceAlpha"/><feGaussianBlur stdDeviation="15" result="i"/><feFlood flood-opacity="0.078"/><feComposite operator="in" in2="i"/><feComposite in="SourceGraphic"/></filter></defs><g transform="translate(-10.055 -39.055)"><g transform="translate(229.574 190.824)"><g class="q" transform="matrix(1, 0, 0, 1, -235.63, -190.82)"><rect class="d" width="349" height="116" transform="translate(236 191)"/></g><text class="e" transform="translate(227.372 63.176)"><tspan x="-28.913" y="0">GENDER</tspan></text></g><g transform="translate(0)"><g class="p" transform="matrix(1, 0, 0, 1, -6.05, 0)"><circle class="d" cx="121" cy="121" r="121" transform="translate(105 72)"/></g><g class="f" transform="translate(218.966 28.727)"><path class="g" d="M138.869,0c76.7,0,138.869,62.505,138.869,139.609S215.564,279.218,138.869,279.218,0,216.713,0,139.609,62.174,0,138.869,0Z" transform="translate(-138.868 25.276)"/></g><g class="h" transform="translate(120.984 39.505)"><path class="b" d="M152.831,0A152.831,152.831,0,1,1,0,152.831,152.831,152.831,0,0,1,152.831,0Z" transform="translate(-53.451 0.907)"/></g><g class="i" transform="translate(0 0)"><path class="j" d="M175.432,0A175.432,175.432,0,1,1,0,175.432,175.432,175.432,0,0,1,175.432,0Z" transform="translate(45.859 17.157)"/></g><g class="o" transform="matrix(1, 0, 0, 1, -6.05, 0)"><ellipse class="d" cx="59.5" cy="58.5" rx="59.5" ry="58.5" transform="translate(167 134)"/></g></g><text class="k" transform="translate(116.945 140)"><tspan x="-13.152" y="0">15%</tspan></text><text class="l" transform="translate(218.945 101)"><tspan x="-12.967" y="0">10%</tspan></text><text class="m" transform="translate(314.945 181)"><tspan x="-14.416" y="0">35%</tspan></text><text class="n" transform="translate(189.945 281)"><tspan x="-15.496" y="0">40%</tspan></text></g></svg>