<svg xmlns="http://www.w3.org/2000/svg" width="84.55" height="120.002" viewBox="0 0 84.55 120.002"><defs><style>.a,.b,.c,.d,.e{fill:none;stroke:#030707;}.a,.c{stroke-linecap:square;stroke-miterlimit:10;}.a{stroke-width:2.007px;}.b,.d,.e{stroke-linejoin:round;stroke-miterlimit:1.5;}.b{stroke-width:2px;fill-rule:evenodd;}.c{stroke-width:2px;}.d,.e{stroke-linecap:round;}.d{stroke-width:1.997px;}.e{stroke-width:1.988px;}</style></defs><g transform="translate(-178.468 0.001)"><g transform="translate(169.695 12.493)"><g transform="translate(-8.983 -15.242)"><path class="a" d="M78.791,98.588V81.753a41.271,41.271,0,1,0-37.519,0V98.588"/><g transform="translate(-165.9 0.288)"><path class="b" d="M207.171,98.3h18.67"/></g><path class="a" d="M37.519,56.279a7.5,7.5,0,0,1,15.008,0v7.5h-7.5A7.5,7.5,0,0,1,37.519,56.279Z"/><g transform="translate(16.285 45.694)"><path class="c" d="M36.242,18.088v7.98"/></g><path class="a" d="M82.543,56.279a7.5,7.5,0,1,0-15.008,0v7.5h7.5A7.5,7.5,0,0,0,82.543,56.279Z"/><g transform="translate(20.571 45.552)"><path class="c" d="M46.964,18.231v8.043"/></g><path class="a" d="M52.527,63.783H67.535"/><g transform="translate(0.739 -6.886)"><g transform="translate(-9.885 95.421)"><circle class="d" cx="8.365" cy="8.365" r="8.365" transform="translate(60.811 16.488)"/></g><g transform="translate(-57.57 64.203)"><circle class="e" cx="14.131" cy="14.131" r="14.131" transform="translate(102.73 27.853)"/></g></g></g></g></g></svg>