<svg xmlns="http://www.w3.org/2000/svg" xmlns:xlink="http://www.w3.org/1999/xlink" width="320.378" height="113.04" viewBox="0 0 320.378 111.04"><defs><style>.a{fill:#fff;}.b{fill:#ffc9c9;}.c{font-size:13px;}.c,.d{font-family:Gilroy-Medium, Gilroy;font-weight:500;}.d{fill:#d1d1d1;font-size:12px;}.e{fill:none;stroke:#8e0909;stroke-linecap:square;stroke-miterlimit:10;}.f{filter:url(#a);}</style><filter id="a" x="0" y="0" width="395.378" height="243.04" filterUnits="userSpaceOnUse"><feOffset dx="-30" dy="30" input="SourceAlpha"/><feGaussianBlur stdDeviation="25" result="b"/><feFlood flood-opacity="0.078"/><feComposite operator="in" in2="b"/><feComposite in="SourceGraphic"/></filter></defs><g transform="translate(-210.285 -5041.604)"><g transform="translate(-532.663 -745.339)"><g class="f" transform="matrix(1, 0, 0, 1, 670.95, 5759.94)"><path class="a" d="M1-.816,246.378-.19V92.223H1Z" transform="translate(104 45.82)"/></g><rect class="b" width="89" height="88" transform="translate(742.663 5785.339)"/><g transform="translate(863.521 5835.29)"><text class="c" transform="translate(60.142 10.049)"><tspan x="-32.591" y="0">NEW YORK</tspan></text><text class="d" transform="translate(60.142 29.049)"><tspan x="-28.926" y="0">LOCATION</tspan></text></g></g><g transform="translate(243 5073)"><path class="e" d="M20,9c0,4.9-8,13-8,13S4,13.9,4,9a7.883,7.883,0,0,1,8-8A7.883,7.883,0,0,1,20,9Z"/><circle class="e" cx="3" cy="3" r="3" transform="translate(9 6)"/></g></g></svg>