<svg xmlns="http://www.w3.org/2000/svg" width="103.944" height="106" viewBox="0 0 103.944 106"><defs><style>.a,.b{fill:none;stroke:#030707;stroke-linecap:square;stroke-miterlimit:10;stroke-width:2px;}.b{fill-rule:evenodd;}</style></defs><g transform="translate(-21.556 137.008)"><path class="a" d="M0,0H68a0,0,0,0,1,0,0V10a8,8,0,0,1-8,8H8a8,8,0,0,1-8-8V0A0,0,0,0,1,0,0Z" transform="translate(50.5 -50.008)"/><path class="a" d="M0,0V16" transform="translate(38.556 -128.008) rotate(90)"/><path class="a" d="M0,0V16" transform="translate(38.556 -81.008) rotate(90)"/><path class="a" d="M0,0V22" transform="translate(50.556 -105.008) rotate(90)"/><path class="a" d="M0,0V22" transform="translate(50.556 -58.008) rotate(90)"/><path class="b" d="M67.5-65.969h15v-95H2.5v95h15" transform="translate(42 24.965)"/><path class="a" d="M.475-60.069v58h42v-58H16.306" transform="translate(63.025 -61.939)"/></g></svg>