<svg xmlns="http://www.w3.org/2000/svg" width="139" height="54" viewBox="0 0 139 54"><defs><style>.a{fill:#204545;}</style></defs><g transform="translate(5348 -142) rotate(90)"><circle class="a" cx="1.5" cy="1.5" r="1.5" transform="translate(142 5209)"/><circle class="a" cx="1.5" cy="1.5" r="1.5" transform="translate(159 5209)"/><circle class="a" cx="1.5" cy="1.5" r="1.5" transform="translate(176 5209)"/><circle class="a" cx="1.5" cy="1.5" r="1.5" transform="translate(193 5209)"/><circle class="a" cx="1.5" cy="1.5" r="1.5" transform="translate(142 5226)"/><circle class="a" cx="1.5" cy="1.5" r="1.5" transform="translate(159 5226)"/><circle class="a" cx="1.5" cy="1.5" r="1.5" transform="translate(176 5226)"/><circle class="a" cx="1.5" cy="1.5" r="1.5" transform="translate(193 5226)"/><circle class="a" cx="1.5" cy="1.5" r="1.5" transform="translate(142 5243)"/><circle class="a" cx="1.5" cy="1.5" r="1.5" transform="translate(159 5243)"/><circle class="a" cx="1.5" cy="1.5" r="1.5" transform="translate(176 5243)"/><circle class="a" cx="1.5" cy="1.5" r="1.5" transform="translate(193 5243)"/><circle class="a" cx="1.5" cy="1.5" r="1.5" transform="translate(142 5260)"/><circle class="a" cx="1.5" cy="1.5" r="1.5" transform="translate(159 5260)"/><circle class="a" cx="1.5" cy="1.5" r="1.5" transform="translate(176 5260)"/><circle class="a" cx="1.5" cy="1.5" r="1.5" transform="translate(193 5260)"/><circle class="a" cx="1.5" cy="1.5" r="1.5" transform="translate(142 5277)"/><circle class="a" cx="1.5" cy="1.5" r="1.5" transform="translate(159 5277)"/><circle class="a" cx="1.5" cy="1.5" r="1.5" transform="translate(176 5277)"/><circle class="a" cx="1.5" cy="1.5" r="1.5" transform="translate(193 5277)"/><circle class="a" cx="1.5" cy="1.5" r="1.5" transform="translate(142 5294)"/><circle class="a" cx="1.5" cy="1.5" r="1.5" transform="translate(159 5294)"/><circle class="a" cx="1.5" cy="1.5" r="1.5" transform="translate(176 5294)"/><circle class="a" cx="1.5" cy="1.5" r="1.5" transform="translate(193 5294)"/><circle class="a" cx="1.5" cy="1.5" r="1.5" transform="translate(142 5311)"/><circle class="a" cx="1.5" cy="1.5" r="1.5" transform="translate(159 5311)"/><circle class="a" cx="1.5" cy="1.5" r="1.5" transform="translate(176 5311)"/><circle class="a" cx="1.5" cy="1.5" r="1.5" transform="translate(193 5311)"/><circle class="a" cx="1.5" cy="1.5" r="1.5" transform="translate(142 5328)"/><circle class="a" cx="1.5" cy="1.5" r="1.5" transform="translate(159 5328)"/><circle class="a" cx="1.5" cy="1.5" r="1.5" transform="translate(176 5328)"/><circle class="a" cx="1.5" cy="1.5" r="1.5" transform="translate(193 5328)"/><circle class="a" cx="1.5" cy="1.5" r="1.5" transform="translate(142 5345)"/><circle class="a" cx="1.5" cy="1.5" r="1.5" transform="translate(159 5345)"/><circle class="a" cx="1.5" cy="1.5" r="1.5" transform="translate(176 5345)"/><circle class="a" cx="1.5" cy="1.5" r="1.5" transform="translate(193 5345)"/></g></svg>