<svg xmlns="http://www.w3.org/2000/svg" width="71" height="122" viewBox="0 0 71 122"><defs><style>.a{fill:#453e20;}</style></defs><g transform="translate(5348 -142) rotate(90)"><circle class="a" cx="1.5" cy="1.5" r="1.5" transform="translate(142 5277)"/><circle class="a" cx="1.5" cy="1.5" r="1.5" transform="translate(159 5277)"/><circle class="a" cx="1.5" cy="1.5" r="1.5" transform="translate(176 5277)"/><circle class="a" cx="1.5" cy="1.5" r="1.5" transform="translate(193 5277)"/><circle class="a" cx="1.5" cy="1.5" r="1.5" transform="translate(142 5294)"/><circle class="a" cx="1.5" cy="1.5" r="1.5" transform="translate(159 5294)"/><circle class="a" cx="1.5" cy="1.5" r="1.5" transform="translate(176 5294)"/><circle class="a" cx="1.5" cy="1.5" r="1.5" transform="translate(193 5294)"/><circle class="a" cx="1.5" cy="1.5" r="1.5" transform="translate(142 5311)"/><circle class="a" cx="1.5" cy="1.5" r="1.5" transform="translate(159 5311)"/><circle class="a" cx="1.5" cy="1.5" r="1.5" transform="translate(176 5311)"/><circle class="a" cx="1.5" cy="1.5" r="1.5" transform="translate(193 5311)"/><circle class="a" cx="1.5" cy="1.5" r="1.5" transform="translate(142 5328)"/><circle class="a" cx="1.5" cy="1.5" r="1.5" transform="translate(159 5328)"/><circle class="a" cx="1.5" cy="1.5" r="1.5" transform="translate(176 5328)"/><circle class="a" cx="1.5" cy="1.5" r="1.5" transform="translate(193 5328)"/><circle class="a" cx="1.5" cy="1.5" r="1.5" transform="translate(142 5345)"/><circle class="a" cx="1.5" cy="1.5" r="1.5" transform="translate(159 5345)"/><circle class="a" cx="1.5" cy="1.5" r="1.5" transform="translate(176 5345)"/><circle class="a" cx="1.5" cy="1.5" r="1.5" transform="translate(193 5345)"/><g transform="translate(68)"><circle class="a" cx="1.5" cy="1.5" r="1.5" transform="translate(142 5277)"/><circle class="a" cx="1.5" cy="1.5" r="1.5" transform="translate(159 5277)"/><circle class="a" cx="1.5" cy="1.5" r="1.5" transform="translate(176 5277)"/><circle class="a" cx="1.5" cy="1.5" r="1.5" transform="translate(193 5277)"/><circle class="a" cx="1.5" cy="1.5" r="1.5" transform="translate(142 5294)"/><circle class="a" cx="1.5" cy="1.5" r="1.5" transform="translate(159 5294)"/><circle class="a" cx="1.5" cy="1.5" r="1.5" transform="translate(176 5294)"/><circle class="a" cx="1.5" cy="1.5" r="1.5" transform="translate(193 5294)"/><circle class="a" cx="1.5" cy="1.5" r="1.5" transform="translate(142 5311)"/><circle class="a" cx="1.5" cy="1.5" r="1.5" transform="translate(159 5311)"/><circle class="a" cx="1.5" cy="1.5" r="1.5" transform="translate(176 5311)"/><circle class="a" cx="1.5" cy="1.5" r="1.5" transform="translate(193 5311)"/><circle class="a" cx="1.5" cy="1.5" r="1.5" transform="translate(142 5328)"/><circle class="a" cx="1.5" cy="1.5" r="1.5" transform="translate(159 5328)"/><circle class="a" cx="1.5" cy="1.5" r="1.5" transform="translate(176 5328)"/><circle class="a" cx="1.5" cy="1.5" r="1.5" transform="translate(193 5328)"/><circle class="a" cx="1.5" cy="1.5" r="1.5" transform="translate(142 5345)"/><circle class="a" cx="1.5" cy="1.5" r="1.5" transform="translate(159 5345)"/><circle class="a" cx="1.5" cy="1.5" r="1.5" transform="translate(176 5345)"/><circle class="a" cx="1.5" cy="1.5" r="1.5" transform="translate(193 5345)"/></g></g></svg>