<svg xmlns="http://www.w3.org/2000/svg" width="105" height="105" viewBox="0 0 105 105"><defs><style>.a{fill:#8142a8;}</style></defs><g transform="translate(17 -108)"><g transform="translate(78 49)"><g transform="translate(-95 59)"><circle class="a" cx="1.5" cy="1.5" r="1.5" transform="translate(0 3) rotate(-90)"/><circle class="a" cx="1.5" cy="1.5" r="1.5" transform="translate(0 20) rotate(-90)"/><circle class="a" cx="1.5" cy="1.5" r="1.5" transform="translate(17 20) rotate(-90)"/><circle class="a" cx="1.5" cy="1.5" r="1.5" transform="translate(17 37) rotate(-90)"/><circle class="a" cx="1.5" cy="1.5" r="1.5" transform="translate(34 37) rotate(-90)"/><circle class="a" cx="1.5" cy="1.5" r="1.5" transform="translate(0 37) rotate(-90)"/><circle class="a" cx="1.5" cy="1.5" r="1.5" transform="translate(34 54) rotate(-90)"/><circle class="a" cx="1.5" cy="1.5" r="1.5" transform="translate(51 54) rotate(-90)"/><circle class="a" cx="1.5" cy="1.5" r="1.5" transform="translate(17 54) rotate(-90)"/><circle class="a" cx="1.5" cy="1.5" r="1.5" transform="translate(0 54) rotate(-90)"/><circle class="a" cx="1.5" cy="1.5" r="1.5" transform="translate(51 71) rotate(-90)"/><circle class="a" cx="1.5" cy="1.5" r="1.5" transform="translate(68 71) rotate(-90)"/><circle class="a" cx="1.5" cy="1.5" r="1.5" transform="translate(34 71) rotate(-90)"/><circle class="a" cx="1.5" cy="1.5" r="1.5" transform="translate(17 71) rotate(-90)"/><circle class="a" cx="1.5" cy="1.5" r="1.5" transform="translate(0 71) rotate(-90)"/><circle class="a" cx="1.5" cy="1.5" r="1.5" transform="translate(51 71) rotate(-90)"/><circle class="a" cx="1.5" cy="1.5" r="1.5" transform="translate(68 71) rotate(-90)"/><circle class="a" cx="1.5" cy="1.5" r="1.5" transform="translate(34 71) rotate(-90)"/><circle class="a" cx="1.5" cy="1.5" r="1.5" transform="translate(17 71) rotate(-90)"/><circle class="a" cx="1.5" cy="1.5" r="1.5" transform="translate(0 71) rotate(-90)"/><circle class="a" cx="1.5" cy="1.5" r="1.5" transform="translate(0 88) rotate(-90)"/><circle class="a" cx="1.5" cy="1.5" r="1.5" transform="translate(68 88) rotate(-90)"/><circle class="a" cx="1.5" cy="1.5" r="1.5" transform="translate(85 88) rotate(-90)"/><circle class="a" cx="1.5" cy="1.5" r="1.5" transform="translate(51 88) rotate(-90)"/><circle class="a" cx="1.5" cy="1.5" r="1.5" transform="translate(34 88) rotate(-90)"/><circle class="a" cx="1.5" cy="1.5" r="1.5" transform="translate(17 88) rotate(-90)"/><circle class="a" cx="1.5" cy="1.5" r="1.5" transform="translate(17 105) rotate(-90)"/><circle class="a" cx="1.5" cy="1.5" r="1.5" transform="translate(85 105) rotate(-90)"/><circle class="a" cx="1.5" cy="1.5" r="1.5" transform="translate(102 105) rotate(-90)"/><circle class="a" cx="1.5" cy="1.5" r="1.5" transform="translate(68 105) rotate(-90)"/><circle class="a" cx="1.5" cy="1.5" r="1.5" transform="translate(51 105) rotate(-90)"/><circle class="a" cx="1.5" cy="1.5" r="1.5" transform="translate(34 105) rotate(-90)"/><circle class="a" cx="1.5" cy="1.5" r="1.5" transform="translate(0 105) rotate(-90)"/></g><g transform="translate(-95 59)"><circle class="a" cx="1.5" cy="1.5" r="1.5" transform="translate(105 102) rotate(90)"/><circle class="a" cx="1.5" cy="1.5" r="1.5" transform="translate(105 85) rotate(90)"/><circle class="a" cx="1.5" cy="1.5" r="1.5" transform="translate(88 85) rotate(90)"/><circle class="a" cx="1.5" cy="1.5" r="1.5" transform="translate(88 68) rotate(90)"/><circle class="a" cx="1.5" cy="1.5" r="1.5" transform="translate(71 68) rotate(90)"/><circle class="a" cx="1.5" cy="1.5" r="1.5" transform="translate(105 68) rotate(90)"/><circle class="a" cx="1.5" cy="1.5" r="1.5" transform="translate(71 51) rotate(90)"/><circle class="a" cx="1.5" cy="1.5" r="1.5" transform="translate(54 51) rotate(90)"/><circle class="a" cx="1.5" cy="1.5" r="1.5" transform="translate(88 51) rotate(90)"/><circle class="a" cx="1.5" cy="1.5" r="1.5" transform="translate(105 51) rotate(90)"/><circle class="a" cx="1.5" cy="1.5" r="1.5" transform="translate(54 34) rotate(90)"/><circle class="a" cx="1.5" cy="1.5" r="1.5" transform="translate(37 34) rotate(90)"/><circle class="a" cx="1.5" cy="1.5" r="1.5" transform="translate(71 34) rotate(90)"/><circle class="a" cx="1.5" cy="1.5" r="1.5" transform="translate(88 34) rotate(90)"/><circle class="a" cx="1.5" cy="1.5" r="1.5" transform="translate(105 34) rotate(90)"/><circle class="a" cx="1.5" cy="1.5" r="1.5" transform="translate(54 34) rotate(90)"/><circle class="a" cx="1.5" cy="1.5" r="1.5" transform="translate(37 34) rotate(90)"/><circle class="a" cx="1.5" cy="1.5" r="1.5" transform="translate(71 34) rotate(90)"/><circle class="a" cx="1.5" cy="1.5" r="1.5" transform="translate(88 34) rotate(90)"/><circle class="a" cx="1.5" cy="1.5" r="1.5" transform="translate(105 34) rotate(90)"/><circle class="a" cx="1.5" cy="1.5" r="1.5" transform="translate(105 17) rotate(90)"/><circle class="a" cx="1.5" cy="1.5" r="1.5" transform="translate(37 17) rotate(90)"/><circle class="a" cx="1.5" cy="1.5" r="1.5" transform="translate(20 17) rotate(90)"/><circle class="a" cx="1.5" cy="1.5" r="1.5" transform="translate(54 17) rotate(90)"/><circle class="a" cx="1.5" cy="1.5" r="1.5" transform="translate(71 17) rotate(90)"/><circle class="a" cx="1.5" cy="1.5" r="1.5" transform="translate(88 17) rotate(90)"/><circle class="a" cx="1.5" cy="1.5" r="1.5" transform="translate(88) rotate(90)"/><circle class="a" cx="1.5" cy="1.5" r="1.5" transform="translate(20) rotate(90)"/><circle class="a" cx="1.5" cy="1.5" r="1.5" transform="translate(3) rotate(90)"/><circle class="a" cx="1.5" cy="1.5" r="1.5" transform="translate(37) rotate(90)"/><circle class="a" cx="1.5" cy="1.5" r="1.5" transform="translate(54) rotate(90)"/><circle class="a" cx="1.5" cy="1.5" r="1.5" transform="translate(71) rotate(90)"/><circle class="a" cx="1.5" cy="1.5" r="1.5" transform="translate(105) rotate(90)"/></g></g></g></svg>