<svg xmlns="http://www.w3.org/2000/svg" width="54" height="122" viewBox="0 0 54 122"><defs><style>.a{fill:#4c72f2;}</style></defs><g transform="translate(54 122) rotate(180)"><circle class="a" cx="1.5" cy="1.5" r="1.5" transform="translate(0 17)"/><circle class="a" cx="1.5" cy="1.5" r="1.5" transform="translate(17 17)"/><circle class="a" cx="1.5" cy="1.5" r="1.5" transform="translate(34 17)"/><circle class="a" cx="1.5" cy="1.5" r="1.5"/><circle class="a" cx="1.5" cy="1.5" r="1.5" transform="translate(17)"/><circle class="a" cx="1.5" cy="1.5" r="1.5" transform="translate(0 34)"/><circle class="a" cx="1.5" cy="1.5" r="1.5" transform="translate(17 34)"/><circle class="a" cx="1.5" cy="1.5" r="1.5" transform="translate(34 34)"/><circle class="a" cx="1.5" cy="1.5" r="1.5" transform="translate(51 34)"/><circle class="a" cx="1.5" cy="1.5" r="1.5" transform="translate(0 51)"/><circle class="a" cx="1.5" cy="1.5" r="1.5" transform="translate(17 51)"/><circle class="a" cx="1.5" cy="1.5" r="1.5" transform="translate(34 51)"/><circle class="a" cx="1.5" cy="1.5" r="1.5" transform="translate(51 51)"/><circle class="a" cx="1.5" cy="1.5" r="1.5" transform="translate(0 68)"/><circle class="a" cx="1.5" cy="1.5" r="1.5" transform="translate(17 68)"/><circle class="a" cx="1.5" cy="1.5" r="1.5" transform="translate(34 68)"/><circle class="a" cx="1.5" cy="1.5" r="1.5" transform="translate(51 68)"/><circle class="a" cx="1.5" cy="1.5" r="1.5" transform="translate(0 85)"/><circle class="a" cx="1.5" cy="1.5" r="1.5" transform="translate(17 85)"/><circle class="a" cx="1.5" cy="1.5" r="1.5" transform="translate(34 85)"/><circle class="a" cx="1.5" cy="1.5" r="1.5" transform="translate(51 85)"/><circle class="a" cx="1.5" cy="1.5" r="1.5" transform="translate(0 102)"/><circle class="a" cx="1.5" cy="1.5" r="1.5" transform="translate(17 102)"/><circle class="a" cx="1.5" cy="1.5" r="1.5" transform="translate(34 102)"/><circle class="a" cx="1.5" cy="1.5" r="1.5" transform="translate(51 102)"/><circle class="a" cx="1.5" cy="1.5" r="1.5" transform="translate(0 119)"/><circle class="a" cx="1.5" cy="1.5" r="1.5" transform="translate(17 119)"/><circle class="a" cx="1.5" cy="1.5" r="1.5" transform="translate(34 119)"/><circle class="a" cx="1.5" cy="1.5" r="1.5" transform="translate(51 119)"/></g></svg>