<svg xmlns="http://www.w3.org/2000/svg" width="54" height="122" viewBox="0 0 54 122"><defs><style>.a{fill:#5044ab;}</style></defs><g transform="translate(62.711 337)"><g transform="translate(-62.711 -283) rotate(-90)"><circle class="a" cx="1.5" cy="1.5" r="1.5" transform="translate(0 51)"/><circle class="a" cx="1.5" cy="1.5" r="1.5" transform="translate(0 34)"/><circle class="a" cx="1.5" cy="1.5" r="1.5" transform="translate(17 51)"/><circle class="a" cx="1.5" cy="1.5" r="1.5" transform="translate(17 34)"/><circle class="a" cx="1.5" cy="1.5" r="1.5" transform="translate(34 51)"/><circle class="a" cx="1.5" cy="1.5" r="1.5" transform="translate(34 34)"/><circle class="a" cx="1.5" cy="1.5" r="1.5" transform="translate(51 51)"/><circle class="a" cx="1.5" cy="1.5" r="1.5" transform="translate(51 34)"/><circle class="a" cx="1.5" cy="1.5" r="1.5" transform="translate(0 17)"/><circle class="a" cx="1.5" cy="1.5" r="1.5"/><circle class="a" cx="1.5" cy="1.5" r="1.5" transform="translate(17 17)"/><circle class="a" cx="1.5" cy="1.5" r="1.5" transform="translate(17)"/><circle class="a" cx="1.5" cy="1.5" r="1.5" transform="translate(34 17)"/><circle class="a" cx="1.5" cy="1.5" r="1.5" transform="translate(34)"/><circle class="a" cx="1.5" cy="1.5" r="1.5" transform="translate(51 17)"/><circle class="a" cx="1.5" cy="1.5" r="1.5" transform="translate(51)"/></g><g transform="translate(-62.711 -215) rotate(-90)"><circle class="a" cx="1.5" cy="1.5" r="1.5" transform="translate(0 51)"/><circle class="a" cx="1.5" cy="1.5" r="1.5" transform="translate(0 34)"/><circle class="a" cx="1.5" cy="1.5" r="1.5" transform="translate(17 51)"/><circle class="a" cx="1.5" cy="1.5" r="1.5" transform="translate(17 34)"/><circle class="a" cx="1.5" cy="1.5" r="1.5" transform="translate(34 51)"/><circle class="a" cx="1.5" cy="1.5" r="1.5" transform="translate(34 34)"/><circle class="a" cx="1.5" cy="1.5" r="1.5" transform="translate(51 51)"/><circle class="a" cx="1.5" cy="1.5" r="1.5" transform="translate(51 34)"/><circle class="a" cx="1.5" cy="1.5" r="1.5" transform="translate(0 17)"/><circle class="a" cx="1.5" cy="1.5" r="1.5"/><circle class="a" cx="1.5" cy="1.5" r="1.5" transform="translate(17 17)"/><circle class="a" cx="1.5" cy="1.5" r="1.5" transform="translate(17)"/><circle class="a" cx="1.5" cy="1.5" r="1.5" transform="translate(34 17)"/><circle class="a" cx="1.5" cy="1.5" r="1.5" transform="translate(34)"/><circle class="a" cx="1.5" cy="1.5" r="1.5" transform="translate(51 17)"/><circle class="a" cx="1.5" cy="1.5" r="1.5" transform="translate(51)"/></g></g></svg>