<svg xmlns="http://www.w3.org/2000/svg" width="139" height="54" viewBox="0 0 139 54"><defs><style>.a{fill:#725f8b;}</style></defs><g transform="translate(-997.5 -355.5)"><g transform="translate(724.5 -751.5)"><circle class="a" cx="1.5" cy="1.5" r="1.5" transform="translate(273 1141)"/><circle class="a" cx="1.5" cy="1.5" r="1.5" transform="translate(273 1158)"/><circle class="a" cx="1.5" cy="1.5" r="1.5" transform="translate(290 1141)"/><circle class="a" cx="1.5" cy="1.5" r="1.5" transform="translate(290 1158)"/><circle class="a" cx="1.5" cy="1.5" r="1.5" transform="translate(307 1141)"/><circle class="a" cx="1.5" cy="1.5" r="1.5" transform="translate(307 1158)"/><circle class="a" cx="1.5" cy="1.5" r="1.5" transform="translate(324 1141)"/><circle class="a" cx="1.5" cy="1.5" r="1.5" transform="translate(324 1158)"/><circle class="a" cx="1.5" cy="1.5" r="1.5" transform="translate(341 1141)"/><circle class="a" cx="1.5" cy="1.5" r="1.5" transform="translate(341 1158)"/><circle class="a" cx="1.5" cy="1.5" r="1.5" transform="translate(358 1141)"/><circle class="a" cx="1.5" cy="1.5" r="1.5" transform="translate(358 1158)"/><circle class="a" cx="1.5" cy="1.5" r="1.5" transform="translate(375 1141)"/><circle class="a" cx="1.5" cy="1.5" r="1.5" transform="translate(375 1158)"/><circle class="a" cx="1.5" cy="1.5" r="1.5" transform="translate(392 1141)"/><circle class="a" cx="1.5" cy="1.5" r="1.5" transform="translate(392 1158)"/><circle class="a" cx="1.5" cy="1.5" r="1.5" transform="translate(409 1141)"/><circle class="a" cx="1.5" cy="1.5" r="1.5" transform="translate(409 1158)"/></g><g transform="translate(724.5 -785.5)"><circle class="a" cx="1.5" cy="1.5" r="1.5" transform="translate(273 1141)"/><circle class="a" cx="1.5" cy="1.5" r="1.5" transform="translate(273 1158)"/><circle class="a" cx="1.5" cy="1.5" r="1.5" transform="translate(290 1141)"/><circle class="a" cx="1.5" cy="1.5" r="1.5" transform="translate(290 1158)"/><circle class="a" cx="1.5" cy="1.5" r="1.5" transform="translate(307 1141)"/><circle class="a" cx="1.5" cy="1.5" r="1.5" transform="translate(307 1158)"/><circle class="a" cx="1.5" cy="1.5" r="1.5" transform="translate(324 1141)"/><circle class="a" cx="1.5" cy="1.5" r="1.5" transform="translate(324 1158)"/><circle class="a" cx="1.5" cy="1.5" r="1.5" transform="translate(341 1141)"/><circle class="a" cx="1.5" cy="1.5" r="1.5" transform="translate(341 1158)"/><circle class="a" cx="1.5" cy="1.5" r="1.5" transform="translate(358 1141)"/><circle class="a" cx="1.5" cy="1.5" r="1.5" transform="translate(358 1158)"/><circle class="a" cx="1.5" cy="1.5" r="1.5" transform="translate(375 1141)"/><circle class="a" cx="1.5" cy="1.5" r="1.5" transform="translate(375 1158)"/><circle class="a" cx="1.5" cy="1.5" r="1.5" transform="translate(392 1141)"/><circle class="a" cx="1.5" cy="1.5" r="1.5" transform="translate(392 1158)"/><circle class="a" cx="1.5" cy="1.5" r="1.5" transform="translate(409 1141)"/><circle class="a" cx="1.5" cy="1.5" r="1.5" transform="translate(409 1158)"/></g></g></svg>