<svg xmlns="http://www.w3.org/2000/svg" width="60" height="78" viewBox="0 0 60 78"><defs><style>.a{fill:#72608b;}</style></defs><circle class="a" cx="1.5" cy="1.5" r="1.5" transform="translate(0 75)"/><circle class="a" cx="1.5" cy="1.5" r="1.5" transform="translate(0 56)"/><circle class="a" cx="1.5" cy="1.5" r="1.5" transform="translate(0 37)"/><circle class="a" cx="1.5" cy="1.5" r="1.5" transform="translate(0 19)"/><circle class="a" cx="1.5" cy="1.5" r="1.5"/><circle class="a" cx="1.5" cy="1.5" r="1.5" transform="translate(19 75)"/><circle class="a" cx="1.5" cy="1.5" r="1.5" transform="translate(19 56)"/><circle class="a" cx="1.5" cy="1.5" r="1.5" transform="translate(19 37)"/><circle class="a" cx="1.5" cy="1.5" r="1.5" transform="translate(19 19)"/><circle class="a" cx="1.5" cy="1.5" r="1.5" transform="translate(19)"/><circle class="a" cx="1.5" cy="1.5" r="1.5" transform="translate(38 75)"/><circle class="a" cx="1.5" cy="1.5" r="1.5" transform="translate(38 56)"/><circle class="a" cx="1.5" cy="1.5" r="1.5" transform="translate(38 37)"/><circle class="a" cx="1.5" cy="1.5" r="1.5" transform="translate(38 19)"/><circle class="a" cx="1.5" cy="1.5" r="1.5" transform="translate(38)"/><circle class="a" cx="1.5" cy="1.5" r="1.5" transform="translate(57 75)"/><circle class="a" cx="1.5" cy="1.5" r="1.5" transform="translate(57 56)"/><circle class="a" cx="1.5" cy="1.5" r="1.5" transform="translate(57 37)"/><circle class="a" cx="1.5" cy="1.5" r="1.5" transform="translate(57 19)"/><circle class="a" cx="1.5" cy="1.5" r="1.5" transform="translate(57)"/></svg>