<svg xmlns="http://www.w3.org/2000/svg" width="70" height="122" viewBox="0 0 70 122"><defs><style>.a{fill:#74c2c4;}</style></defs><g transform="translate(-1091 395) rotate(-90)"><circle class="a" cx="1.5" cy="1.5" r="1.5" transform="translate(273 1091)"/><circle class="a" cx="1.5" cy="1.5" r="1.5" transform="translate(273 1108)"/><circle class="a" cx="1.5" cy="1.5" r="1.5" transform="translate(273 1125)"/><circle class="a" cx="1.5" cy="1.5" r="1.5" transform="translate(273 1141)"/><circle class="a" cx="1.5" cy="1.5" r="1.5" transform="translate(273 1158)"/><circle class="a" cx="1.5" cy="1.5" r="1.5" transform="translate(290 1091)"/><circle class="a" cx="1.5" cy="1.5" r="1.5" transform="translate(290 1108)"/><circle class="a" cx="1.5" cy="1.5" r="1.5" transform="translate(290 1125)"/><circle class="a" cx="1.5" cy="1.5" r="1.5" transform="translate(290 1141)"/><circle class="a" cx="1.5" cy="1.5" r="1.5" transform="translate(290 1158)"/><circle class="a" cx="1.5" cy="1.5" r="1.5" transform="translate(307 1091)"/><circle class="a" cx="1.5" cy="1.5" r="1.5" transform="translate(307 1108)"/><circle class="a" cx="1.5" cy="1.5" r="1.5" transform="translate(307 1125)"/><circle class="a" cx="1.5" cy="1.5" r="1.5" transform="translate(307 1141)"/><circle class="a" cx="1.5" cy="1.5" r="1.5" transform="translate(307 1158)"/><circle class="a" cx="1.5" cy="1.5" r="1.5" transform="translate(324 1091)"/><circle class="a" cx="1.5" cy="1.5" r="1.5" transform="translate(324 1108)"/><circle class="a" cx="1.5" cy="1.5" r="1.5" transform="translate(324 1125)"/><circle class="a" cx="1.5" cy="1.5" r="1.5" transform="translate(324 1141)"/><circle class="a" cx="1.5" cy="1.5" r="1.5" transform="translate(324 1158)"/><circle class="a" cx="1.5" cy="1.5" r="1.5" transform="translate(341 1091)"/><circle class="a" cx="1.5" cy="1.5" r="1.5" transform="translate(341 1108)"/><circle class="a" cx="1.5" cy="1.5" r="1.5" transform="translate(341 1125)"/><circle class="a" cx="1.5" cy="1.5" r="1.5" transform="translate(341 1141)"/><circle class="a" cx="1.5" cy="1.5" r="1.5" transform="translate(341 1158)"/><circle class="a" cx="1.5" cy="1.5" r="1.5" transform="translate(358 1091)"/><circle class="a" cx="1.5" cy="1.5" r="1.5" transform="translate(358 1108)"/><circle class="a" cx="1.5" cy="1.5" r="1.5" transform="translate(358 1125)"/><circle class="a" cx="1.5" cy="1.5" r="1.5" transform="translate(358 1141)"/><circle class="a" cx="1.5" cy="1.5" r="1.5" transform="translate(358 1158)"/><circle class="a" cx="1.5" cy="1.5" r="1.5" transform="translate(375 1091)"/><circle class="a" cx="1.5" cy="1.5" r="1.5" transform="translate(375 1108)"/><circle class="a" cx="1.5" cy="1.5" r="1.5" transform="translate(375 1125)"/><circle class="a" cx="1.5" cy="1.5" r="1.5" transform="translate(375 1141)"/><circle class="a" cx="1.5" cy="1.5" r="1.5" transform="translate(375 1158)"/><circle class="a" cx="1.5" cy="1.5" r="1.5" transform="translate(392 1091)"/><circle class="a" cx="1.5" cy="1.5" r="1.5" transform="translate(392 1108)"/><circle class="a" cx="1.5" cy="1.5" r="1.5" transform="translate(392 1125)"/><circle class="a" cx="1.5" cy="1.5" r="1.5" transform="translate(392 1141)"/><circle class="a" cx="1.5" cy="1.5" r="1.5" transform="translate(392 1158)"/></g></svg>