<svg xmlns="http://www.w3.org/2000/svg" width="20" height="139" viewBox="0 0 20 139"><defs><style>.a{fill:#aa8044;}</style></defs><g transform="translate(-1141 412) rotate(-90)"><circle class="a" cx="1.5" cy="1.5" r="1.5" transform="translate(273 1141)"/><circle class="a" cx="1.5" cy="1.5" r="1.5" transform="translate(273 1158)"/><circle class="a" cx="1.5" cy="1.5" r="1.5" transform="translate(290 1141)"/><circle class="a" cx="1.5" cy="1.5" r="1.5" transform="translate(290 1158)"/><circle class="a" cx="1.5" cy="1.5" r="1.5" transform="translate(307 1141)"/><circle class="a" cx="1.5" cy="1.5" r="1.5" transform="translate(307 1158)"/><circle class="a" cx="1.5" cy="1.5" r="1.5" transform="translate(324 1141)"/><circle class="a" cx="1.5" cy="1.5" r="1.5" transform="translate(324 1158)"/><circle class="a" cx="1.5" cy="1.5" r="1.5" transform="translate(341 1141)"/><circle class="a" cx="1.5" cy="1.5" r="1.5" transform="translate(341 1158)"/><circle class="a" cx="1.5" cy="1.5" r="1.5" transform="translate(358 1141)"/><circle class="a" cx="1.5" cy="1.5" r="1.5" transform="translate(358 1158)"/><circle class="a" cx="1.5" cy="1.5" r="1.5" transform="translate(375 1141)"/><circle class="a" cx="1.5" cy="1.5" r="1.5" transform="translate(375 1158)"/><circle class="a" cx="1.5" cy="1.5" r="1.5" transform="translate(392 1141)"/><circle class="a" cx="1.5" cy="1.5" r="1.5" transform="translate(392 1158)"/><circle class="a" cx="1.5" cy="1.5" r="1.5" transform="translate(409 1141)"/><circle class="a" cx="1.5" cy="1.5" r="1.5" transform="translate(409 1158)"/></g></svg>