<svg xmlns="http://www.w3.org/2000/svg" width="70" height="122" viewBox="0 0 70 122"><defs><style>.a{fill:#9374c4;}</style></defs><g transform="translate(0 122) rotate(-90)"><circle class="a" cx="1.5" cy="1.5" r="1.5" transform="translate(0 67)"/><circle class="a" cx="1.5" cy="1.5" r="1.5" transform="translate(0 50)"/><circle class="a" cx="1.5" cy="1.5" r="1.5" transform="translate(0 33)"/><circle class="a" cx="1.5" cy="1.5" r="1.5" transform="translate(0 17)"/><circle class="a" cx="1.5" cy="1.5" r="1.5"/><circle class="a" cx="1.5" cy="1.5" r="1.5" transform="translate(17 67)"/><circle class="a" cx="1.5" cy="1.5" r="1.5" transform="translate(17 50)"/><circle class="a" cx="1.5" cy="1.5" r="1.5" transform="translate(17 33)"/><circle class="a" cx="1.5" cy="1.5" r="1.5" transform="translate(17 17)"/><circle class="a" cx="1.5" cy="1.5" r="1.5" transform="translate(17)"/><circle class="a" cx="1.5" cy="1.5" r="1.5" transform="translate(34 67)"/><circle class="a" cx="1.5" cy="1.5" r="1.5" transform="translate(34 50)"/><circle class="a" cx="1.5" cy="1.5" r="1.5" transform="translate(34 33)"/><circle class="a" cx="1.5" cy="1.5" r="1.5" transform="translate(34 17)"/><circle class="a" cx="1.5" cy="1.5" r="1.5" transform="translate(34)"/><circle class="a" cx="1.5" cy="1.5" r="1.5" transform="translate(51 67)"/><circle class="a" cx="1.5" cy="1.5" r="1.5" transform="translate(51 50)"/><circle class="a" cx="1.5" cy="1.5" r="1.5" transform="translate(51 33)"/><circle class="a" cx="1.5" cy="1.5" r="1.5" transform="translate(51 17)"/><circle class="a" cx="1.5" cy="1.5" r="1.5" transform="translate(51)"/><circle class="a" cx="1.5" cy="1.5" r="1.5" transform="translate(68 67)"/><circle class="a" cx="1.5" cy="1.5" r="1.5" transform="translate(68 50)"/><circle class="a" cx="1.5" cy="1.5" r="1.5" transform="translate(68 33)"/><circle class="a" cx="1.5" cy="1.5" r="1.5" transform="translate(68 17)"/><circle class="a" cx="1.5" cy="1.5" r="1.5" transform="translate(68)"/><circle class="a" cx="1.5" cy="1.5" r="1.5" transform="translate(85 67)"/><circle class="a" cx="1.5" cy="1.5" r="1.5" transform="translate(85 50)"/><circle class="a" cx="1.5" cy="1.5" r="1.5" transform="translate(85 33)"/><circle class="a" cx="1.5" cy="1.5" r="1.5" transform="translate(85 17)"/><circle class="a" cx="1.5" cy="1.5" r="1.5" transform="translate(85)"/><circle class="a" cx="1.5" cy="1.5" r="1.5" transform="translate(102 67)"/><circle class="a" cx="1.5" cy="1.5" r="1.5" transform="translate(102 50)"/><circle class="a" cx="1.5" cy="1.5" r="1.5" transform="translate(102 33)"/><circle class="a" cx="1.5" cy="1.5" r="1.5" transform="translate(102 17)"/><circle class="a" cx="1.5" cy="1.5" r="1.5" transform="translate(102)"/><circle class="a" cx="1.5" cy="1.5" r="1.5" transform="translate(119 67)"/><circle class="a" cx="1.5" cy="1.5" r="1.5" transform="translate(119 50)"/><circle class="a" cx="1.5" cy="1.5" r="1.5" transform="translate(119 33)"/><circle class="a" cx="1.5" cy="1.5" r="1.5" transform="translate(119 17)"/><circle class="a" cx="1.5" cy="1.5" r="1.5" transform="translate(119)"/></g></svg>