<svg xmlns="http://www.w3.org/2000/svg" width="102.24" height="120.066" viewBox="0 0 102.24 120.066"><defs><style>.a,.b,.c,.d,.e,.f{fill:none;stroke:#030707;}.a,.b,.c,.d{stroke-miterlimit:10;}.a{stroke-width:1.843px;}.b{stroke-width:1.986px;}.c,.d{stroke-linecap:square;}.c{stroke-width:1.963px;}.d{stroke-width:2.006px;}.e,.f{stroke-linecap:round;stroke-linejoin:round;stroke-miterlimit:1.5;fill-rule:evenodd;}.e{stroke-width:1.991px;}.f{stroke-width:2.003px;}</style></defs><g transform="translate(-326.404 0)"><g transform="translate(326.476 12.493)"><g transform="translate(-2.255 -0.298)"><g transform="translate(8.156 2.859)"><g transform="translate(0 2.088)"><path class="a" d="M5.958,57.109H19.47"/></g><path class="b" d="M44.488,67.816h4.646c6.163,0,12.284,7.114,12.284,14.277H33.78"/><path class="b" d="M59.456,74.955H79.844c11.132,0,12.284,7.139,12.284,7.139L48.152,102.853a11.532,11.532,0,0,1-10.8-.523l-22-12.985"/><g transform="translate(-6.131 6.867)"><rect class="c" width="17.188" height="43.094" transform="translate(4.297 46.409)"/></g></g><g transform="translate(-5.355 1.016)"><g transform="translate(5.203 -22.417)"><path class="d" d="M95.564,18.362a26.989,26.989,0,0,0-38.659,0,27.9,27.9,0,0,0-3.451,4.3A27.883,27.883,0,0,0,50,18.362a26.988,26.988,0,0,0-38.659,0,28.2,28.2,0,0,0,0,39.371l42.111,42.885L95.564,57.733A28.2,28.2,0,0,0,95.564,18.362Z"/></g><g transform="translate(-144.539 -67.087)"><path class="e" d="M198.671,82.69a28.057,28.057,0,0,1,4.6-15.456"/></g><g transform="translate(-190.135 -67.087)"><path class="e" d="M248.879,67.471a28.058,28.058,0,0,1,4.452,15.219"/></g><g transform="translate(21.394 1.969)"><path class="f" d="M41.77,13.634a4.507,4.507,0,1,1-9.012,0"/></g></g></g></g></g></svg>