<svg xmlns="http://www.w3.org/2000/svg" width="107.265" height="113" viewBox="0 0 107.265 113"><defs><style>.a{fill:none;stroke:#030707;stroke-linecap:square;stroke-miterlimit:10;stroke-width:2px;}</style></defs><g transform="translate(160.265 -176.784)"><circle class="a" cx="15" cy="15" r="15" transform="translate(-155.269 177.784)"/><path class="a" d="M57.46,55.863C36.129,45.2,36.129,26,19.065,26A17.449,17.449,0,0,0,2,43.065V92.125H36.129V58" transform="translate(-161.265 190.658)"/><circle class="a" cx="15" cy="15" r="15" transform="translate(-94.008 178.784)"/><path class="a" d="M36,55.863C57.331,45.2,57.331,26,74.4,26A17.448,17.448,0,0,1,91.46,43.065V92.125H57.331V58" transform="translate(-151.319 190.658)"/><path class="a" d="M69.218-130.069v26" transform="translate(-221.218 392.853)"/><path class="a" d="M69.218-130.069v26" transform="translate(-184.069 205.566) rotate(90)"/></g></svg>