<svg xmlns="http://www.w3.org/2000/svg" width="120" height="108.353" viewBox="0 0 120 108.353"><defs><style>.a{fill:none;stroke:#030707;stroke-linecap:square;stroke-miterlimit:10;stroke-width:2px;}</style></defs><g transform="translate(-9.05 116.447)"><path class="a" d="M88.295-89.595h29.922a9.936,9.936,0,0,1,9.833,9.943v39.773a9.936,9.936,0,0,1-9.833,9.943h-5.9V-10.05L84.783-29.936h-23.6"/><path class="a" d="M94.617-115.447H19.883A9.936,9.936,0,0,0,10.05-105.5v45.738a9.936,9.936,0,0,0,9.833,9.943h9.833v27.841L61.183-49.822H94.617a9.936,9.936,0,0,0,9.833-9.943V-105.5A9.936,9.936,0,0,0,94.617-115.447Z"/><path class="a" d="M28.877-97.008h43.6" transform="translate(-2.08 2)"/><path class="a" d="M28.877-97.008H89.455" transform="translate(-2.08 16)"/><path class="a" d="M28.877-97.008H55.33" transform="translate(-2.08 30)"/></g></svg>