<svg xmlns="http://www.w3.org/2000/svg" width="116.507" height="116.008" viewBox="0 0 116.507 116.008"><defs><style>.a{fill:none;stroke:#030707;stroke-miterlimit:10;stroke-width:2.006px;}</style></defs><g transform="translate(-1.281 116.592)"><path class="a" d="M2.236-69.353H53.125"/><path class="a" d="M63.246-39.24l7.931-30.113L63.634-82.165,53.5-99.379"/><path class="a" d="M53.5-99.379,35.823-69.353,53.5-2.236"/><path class="a" d="M29.831-80.662l5.992,11.309"/><path class="a" d="M87.086-99.379,71.177-69.353"/><path class="a" d="M89.144-48.574,53.751-2.236,2.487-69.353,20.165-99.379H87.338l17.677,30.026"/><path class="a" d="M65.843-50.094c14.248,0,25.972-11.453,25.972-25.371,0,13.918,11.725,25.371,25.973,25.371"/><path class="a" d="M101.776-44.658a25.1,25.1,0,0,0-9.961,19.934c0-13.918-11.724-25.371-25.972-25.371"/><path class="a" d="M3.166-99.36A17.315,17.315,0,0,0,20.4-116.592,17.315,17.315,0,0,0,37.631-99.36"/><path class="a" d="M27.007-95.667A17.19,17.19,0,0,0,20.4-82.128,17.315,17.315,0,0,0,3.166-99.36"/></g></svg>