<svg xmlns="http://www.w3.org/2000/svg" width="122.019" height="122.019" viewBox="0 0 122.019 122.019"><defs><style>.a,.b,.c{fill:none;stroke:#030707;stroke-miterlimit:10;stroke-width:2px;}.b{stroke-linecap:square;}.c{stroke-linecap:round;stroke-linejoin:round;}</style></defs><g transform="translate(-9.05 131.069)"><path class="a" d="M117.427-89.453a51.839,51.839,0,0,1,3.78,19.5A51.989,51.989,0,0,1,69.218-17.969,51.989,51.989,0,0,1,17.229-69.958a51.989,51.989,0,0,1,51.989-51.989,51.836,51.836,0,0,1,19.494,3.778"/><path class="b" d="M69.218-130.069v20"/><path class="b" d="M130.069-69.958h-20"/><path class="b" d="M69.218-10.05v-20"/><path class="b" d="M10.05-69.958h20"/><path class="b" d="M72.64-78.769a11.3,11.3,0,0,1,11.29,11.29,11.3,11.3,0,0,1-11.29,11.29,11.3,11.3,0,0,1-11.29-11.29A11.3,11.3,0,0,1,72.64-78.769Z" transform="translate(-2.797 -2.364)"/><path class="c" d="M84.378-92.879a18.626,18.626,0,0,1,18.617,18.617A18.626,18.626,0,0,1,84.378-55.645,18.626,18.626,0,0,1,65.761-74.261,18.626,18.626,0,0,1,84.378-92.879Z" transform="translate(-1.696 -9.441)"/></g></svg>