<svg xmlns="http://www.w3.org/2000/svg" width="106.832" height="118.853" viewBox="0 0 106.832 118.853"><defs><style>.a{fill:none;stroke:#030707;stroke-linecap:square;stroke-miterlimit:10;stroke-width:2px;}</style></defs><g transform="translate(-9.05 114.187)"><path class="a" d="M107.893-16.448H17.039a7.022,7.022,0,0,1-6.989-6.989v-62.9a7.022,7.022,0,0,1,6.989-6.989h90.854a7.022,7.022,0,0,1,6.989,6.989v62.9A7.022,7.022,0,0,1,107.893-16.448Z" transform="translate(0 2.641)"/><path class="a" d="M65.566-17.76v8.736" transform="translate(7.383 12.69)"/><path class="a" d="M47.061-6.627V-35.79" transform="translate(4.922 10.293)"/><path class="a" d="M34.724-10.05H83.646" transform="translate(3.281 13.716)"/><path class="a" d="M17.473-42.1c57.547,0,30.466-71.087,88.012-71.087" transform="translate(0.987)"/><path class="a" d="M62.765-48.232V-66.852" transform="translate(7.01 6.162)"/><path class="a" d="M47.051-49.753v-5.7" transform="translate(4.921 7.678)"/><path class="a" d="M78.765-46.084V-83.008" transform="translate(9.138 4.013)"/><path class="a" d="M94.765-44.609v-57.5" transform="translate(11.266 1.474)"/></g></svg>