<svg xmlns="http://www.w3.org/2000/svg" width="128.954" height="133.819" viewBox="0 0 128.954 133.819"><defs><style>.a{fill:none;stroke:#030707;stroke-linecap:square;stroke-miterlimit:10;stroke-width:2px;}</style></defs><g transform="matrix(0.966, 0.259, -0.259, 0.966, -35.21, 118.762)"><path class="a" d="M58.652-106.953,80.218-94.845"/><path class="a" d="M112.693-75.749l21.566,12.108"/><path class="a" d="M63.3-45.07a20.159,20.159,0,0,1-7.488-27.948l23.5-39.6-18.239-10.09L37.749-83.157A40.536,40.536,0,0,0,52.773-27.084c19.934,11.342,45.615,4.271,57.436-15.39L133.532-82.03,115.474-92.168,91.923-52.741"/><path class="a" d="M86.33-138.835l-16.382,7.883,13.31,7.685L65.625-113.216"/><path class="a" d="M139.25-108.278l-16.381,7.883,13.31,7.685L118.545-82.659"/></g></svg>