<svg xmlns="http://www.w3.org/2000/svg" width="119.001" height="107.541" viewBox="0 0 119.001 107.541"><defs><style>.a{fill:none;stroke:#030707;stroke-linecap:square;stroke-miterlimit:10;stroke-width:2px;}</style></defs><g transform="translate(-9.05 114.041)"><path class="a" d="M16.163-34.539V-83.69A9.985,9.985,0,0,1,25.913-93.8h84.421a9.985,9.985,0,0,1,9.75,10.114v55.525" transform="translate(0.708 1.661)"/><path class="a" d="M98.876-27.066H10.05v2.023c0,8.878,7.042,16.183,15.6,16.183h85.8c8.558,0,15.6-7.305,15.6-16.183v-2.023h-6.259" transform="translate(0 1.361)"/><g transform="translate(17.968 -122.879)"><path class="a" d="M24.1,20,4,40.1,24.1,60.2" transform="translate(5 6.75)"/><path class="a" d="M4,35.642l20.1,20.1" transform="translate(5 21.488)"/><path class="a" d="M48,20,68.1,40.1,48,60.2" transform="translate(24.701 6.75)"/><path class="a" d="M48,20,68.1,40.1" transform="translate(24.701 -3.53)"/><line class="a" y1="73" x2="27" transform="translate(37.402 10.123)"/></g></g></svg>